<svg width="680" height="397" viewBox="0 0 680 397" fill="none" xmlns="http://www.w3.org/2000/svg">
<rect x="199.537" y="46" width="367.568" height="296.68" rx="17" fill="#F1F1F1"/>
<line x1="383.436" y1="339.88" x2="606.371" y2="339.88" stroke="#F1F1F1" stroke-width="100" stroke-linecap="round"/>
<line x1="95.0077" y1="176.726" x2="311.942" y2="176.726" stroke="#F1F1F1" stroke-width="106" stroke-linecap="round"/>
<path d="M152.278 86.6369C118.672 89.7875 81.39 290.987 66.9498 391.193H275.676C249.421 238.915 217.477 145.71 204.788 118.143C201.287 106.328 185.884 83.4864 152.278 86.6369Z" fill="#D9D9D9" stroke="#D9D9D9" stroke-width="3"/>
<path d="M307.181 10.498C265.174 -32.5599 234.543 98.4517 224.479 169.34L213.977 388.567H317.683H426.641C406.95 292.737 359.691 64.3204 307.181 10.498Z" fill="#E2E2E2" stroke="#DEDEDE" stroke-width="3"/>
<path d="M190.02 233.732C189.98 240.693 211.038 254.409 223.166 261.232C243.428 274.884 226.358 273.921 215.29 271.733C184.615 260.098 187.179 240.793 190.02 233.732C190.025 232.743 190.456 231.891 191.398 231.214C191.508 231.098 191.598 231.039 191.66 231.039C191.569 231.096 191.481 231.154 191.398 231.214C191.061 231.569 190.536 232.448 190.02 233.732Z" fill="white"/>
<path d="M223.166 261.232C209.163 253.355 183.259 236.289 191.66 231.039C190.347 231.039 177.22 257.293 215.29 271.733C226.358 273.921 243.428 274.884 223.166 261.232Z" stroke="#E2E2E2" stroke-width="3"/>
<path d="M212.664 292.737C212.664 232.876 303.681 237.165 349.189 246.791C406.95 261.232 414.826 307.177 412.201 304.552C410.1 302.452 404.324 357.937 401.699 385.942C398.548 390.143 393.385 385.942 391.197 383.316C387.259 383.316 385.946 354.436 384.633 349.185C383.583 344.984 364.067 347.435 354.44 349.185C359.691 349.185 358.378 374.127 359.691 378.066C361.004 382.004 358.378 385.942 354.44 388.567C351.29 390.668 346.126 385.942 343.938 383.316C344.988 379.116 337.375 358.812 333.436 349.185C299.83 342.884 247.671 351.811 225.792 357.062C223.166 355.749 227.104 380.691 225.792 383.316C224.479 385.942 221.853 388.567 217.915 388.567C213.977 388.567 212.664 384.629 212.664 383.316C203.475 363.625 212.664 294.05 212.664 292.737Z" fill="white" stroke="#E2E2E2" stroke-width="3"/>
<path d="M322.934 164.089C316.633 172.49 324.247 181.592 333.436 199.533C336.126 204.784 352.932 223.189 351.882 223.189C343.48 263.096 393.889 296.702 420.144 308.517C439.835 317.706 445.086 300.641 445.086 299.328C421.457 237.629 428.021 223.189 429.333 223.189C479.218 203.498 463.465 170.679 463.465 173.305C452.963 185.119 412.268 196.934 410.955 196.934C401.766 189.058 371.573 199.56 371.573 196.934C365.009 196.934 322.934 162.776 322.934 164.089Z" fill="white" stroke="#E2E2E2" stroke-width="3"/>
<path d="M377.018 161.52C398.022 160.47 409.399 187.337 412.462 200.902C415.087 223.219 392.771 200.902 395.396 200.902C399.335 190.4 374.392 162.833 377.018 161.52Z" fill="#D9D9D9" stroke="#E2E2E2" stroke-width="3"/>
<path d="M365.009 164.116C386.013 163.065 397.39 189.933 400.453 203.498C403.079 225.814 380.762 203.498 383.388 203.498C387.326 192.996 362.384 165.428 365.009 164.116Z" fill="#D9D9D9" stroke="#E2E2E2" stroke-width="3"/>
<path d="M393.822 237.602C393.822 240.502 391.471 242.853 388.571 242.853C385.671 242.853 383.32 240.502 383.32 237.602C383.32 234.702 385.671 232.351 388.571 232.351C391.471 232.351 393.822 234.702 393.822 237.602Z" fill="#D9D9D9"/>
<path d="M445.019 300.614C440.644 302.802 430.579 305.34 425.328 297.988" stroke="#D9D9D9" stroke-width="3"/>
<path d="M434.517 303.239C434.955 305.427 435.042 310.066 431.892 311.116" stroke="#D9D9D9" stroke-width="3"/>
<line x1="7.87645" y1="391.006" x2="680" y2="391.006" stroke="#D9D9D9" stroke-width="3"/>
<path d="M479.643 337.756C473.818 344.227 475.958 352.243 467.539 357.972C465.575 359.307 486.545 361.729 495.828 354.355C502.61 348.962 503.541 339.098 498.471 334.904C493.401 330.71 485.467 331.284 479.643 337.756V337.756Z" fill="white" stroke="#D9D9D9" stroke-width="3" stroke-linecap="round" stroke-linejoin="round"/>
<path d="M484.66 350.219C491.773 344.31 496.478 337.767 499.321 328.626Z" fill="white"/>
<path d="M484.66 350.219C491.773 344.31 496.478 337.767 499.321 328.626" stroke="#D9D9D9" stroke-width="3" stroke-linecap="round" stroke-linejoin="round"/>
<path d="M398.107 81.1813C395.825 89.5842 401.348 95.7744 396.416 104.684C395.265 106.76 415.075 99.4696 420.037 88.7025C423.661 80.8322 420.045 71.6076 413.629 70.149C407.213 68.6904 400.389 72.7787 398.107 81.1813V81.1813Z" fill="white" stroke="#D9D9D9" stroke-width="3" stroke-linecap="round" stroke-linejoin="round"/>
<path d="M408.204 90.0451C411.89 81.5641 413.141 73.6022 411.558 64.1611Z" fill="white"/>
<path d="M408.204 90.0451C411.89 81.5641 413.141 73.6022 411.558 64.1611" stroke="#D9D9D9" stroke-width="3" stroke-linecap="round" stroke-linejoin="round"/>
<path d="M22.3376 331.524C14.2767 334.816 12.7158 342.965 2.64299 344.46C0.294239 344.807 18.1203 356.112 29.6874 353.512C38.14 351.608 43.2703 343.132 40.5307 337.15C37.7911 331.168 30.3979 328.231 22.3376 331.524V331.524Z" fill="#E2E2E2" stroke="#D9D9D9" stroke-width="3" stroke-linecap="round" stroke-linejoin="round"/>
<path d="M21.4314 344.929C30.407 342.704 37.4911 338.86 44.0282 331.867Z" fill="#E2E2E2"/>
<path d="M21.4314 344.929C30.407 342.704 37.4911 338.86 44.0282 331.867" stroke="#D9D9D9" stroke-width="3" stroke-linecap="round" stroke-linejoin="round"/>
<rect x="435.83" y="137.834" width="15.7529" height="15.7529" rx="1" fill="#D9D9D9"/>
<rect x="459.46" y="137.834" width="15.7529" height="15.7529" rx="1" fill="#D9D9D9"/>
<rect x="483.089" y="137.834" width="15.7529" height="15.7529" rx="1" fill="#D9D9D9"/>
<rect x="511.969" y="137.834" width="15.7529" height="15.7529" rx="1" fill="#D9D9D9"/>
<rect x="535.598" y="137.834" width="15.7529" height="15.7529" rx="1" fill="#D9D9D9"/>
<rect x="559.228" y="137.834" width="15.7529" height="15.7529" rx="1" fill="#D9D9D9"/>
<line x1="636.492" y1="391.006" x2="636.492" y2="380.878" stroke="#D9D9D9" stroke-width="3" stroke-linecap="round"/>
<line x1="43.1332" y1="391.006" x2="43.1332" y2="380.878" stroke="#D9D9D9" stroke-width="3" stroke-linecap="round"/>
<line x1="274.176" y1="391.006" x2="274.176" y2="380.878" stroke="#D9D9D9" stroke-width="3" stroke-linecap="round"/>
<path d="M467.241 64V78.852M459.815 71.426H474.667" stroke="#BCBCBC" stroke-width="3" stroke-linecap="round" stroke-linejoin="round"/>
<path d="M115.426 305.544V320.396M108 312.97H122.852" stroke="white" stroke-width="3" stroke-linecap="round" stroke-linejoin="round"/>
<path d="M309.909 120.868L311.603 119.121L317.718 125.05L316.024 126.797L309.909 120.868ZM321.265 131.879L322.959 130.132L329.074 136.061L327.38 137.808L321.265 131.879ZM321.159 124.997L327.088 118.882L328.835 120.576L322.906 126.691L321.159 124.997ZM310.148 136.353L316.077 130.238L317.824 131.932L311.895 138.047L310.148 136.353Z" fill="white"/>
<path d="M486.766 381.089C484.427 381.294 484.052 386.716 484.169 390.088C484.186 390.593 484.592 390.991 485.097 391.019L494.852 391.555C495.249 391.577 495.62 391.362 495.799 391.008L499.408 383.869C499.616 383.458 499.516 382.958 499.166 382.659L495.121 379.194C494.831 378.946 494.427 378.884 494.073 379.028C492.292 379.749 489.048 380.889 486.766 381.089Z" fill="#E2E2E2" stroke="#DBDBDB" stroke-width="3"/>
<path d="M316.874 384.128C319.478 382.858 314.092 379.166 310.734 377.279C310.485 377.139 310.187 377.117 309.918 377.214L297.859 381.569C297.31 381.768 297.046 382.393 297.289 382.924L299.765 388.357C299.924 388.706 300.269 388.933 300.652 388.942L309.639 389.149C309.91 389.155 310.17 389.052 310.367 388.866C311.671 387.632 314.38 385.345 316.874 384.128Z" fill="#F3F3F3" stroke="#DBDBDB" stroke-width="3"/>
<path d="M612.321 380.835C614.001 380.983 614.313 384.765 614.251 387.271C614.238 387.776 613.832 388.175 613.327 388.203L606.501 388.578C606.104 388.599 605.733 388.385 605.553 388.03L603.049 383.076C602.841 382.665 602.941 382.165 603.291 381.866L606.009 379.537C606.299 379.289 606.704 379.228 607.059 379.369C608.404 379.904 610.692 380.693 612.321 380.835Z" fill="#E2E2E2" stroke="#DBDBDB" stroke-width="3"/>
<path d="M500.786 382.782C499.903 382.162 498.238 383.755 497.162 385.05C496.839 385.438 496.893 386.006 497.261 386.352L500.268 389.182C500.558 389.454 500.98 389.529 501.346 389.373L504.374 388.084C504.797 387.903 505.043 387.456 504.969 387.002L504.65 385.061C504.589 384.684 504.318 384.377 503.957 384.253C503.02 383.93 501.631 383.376 500.786 382.782Z" fill="white" stroke="#DBDBDB" stroke-width="3"/>
<path d="M594.06 385.206C594.675 384.774 595.801 385.79 596.596 386.71C596.926 387.092 596.872 387.661 596.504 388.007L594.567 389.829C594.278 390.101 593.855 390.177 593.49 390.021L591.59 389.212C591.166 389.031 590.921 388.585 590.995 388.13L591.172 387.053C591.234 386.676 591.505 386.369 591.865 386.241C592.55 385.998 593.479 385.615 594.06 385.206Z" fill="white" stroke="#DBDBDB" stroke-width="3"/>
<path d="M173.37 378.133C175.058 376.947 178.362 380.328 180.225 382.685C180.539 383.081 180.485 383.648 180.117 383.994L173.919 389.826C173.63 390.098 173.207 390.173 172.842 390.018L166.45 387.295C166.026 387.115 165.781 386.668 165.855 386.213L166.595 381.698C166.657 381.321 166.928 381.014 167.29 380.894C168.924 380.357 171.727 379.288 173.37 378.133Z" fill="white" stroke="#DBDBDB" stroke-width="3"/>
<path d="M526.863 292.701C513.5 286.866 511.111 273.165 494.343 270.257C490.433 269.583 520.478 251.374 539.71 256.19C553.764 259.716 562.099 274.11 557.369 284.014C552.639 293.918 540.225 298.536 526.863 292.701V292.701Z" fill="#E2E2E2" stroke="#D9D9D9" stroke-width="3" stroke-linecap="round" stroke-linejoin="round"/>
<path d="M650.015 278.797C661.899 270.111 660.873 256.166 676.883 249.588C680.617 248.057 646.104 236.917 628.11 245.912C614.963 252.492 610.226 268.439 617.41 277.082C624.594 285.725 638.132 287.484 650.015 278.797V278.797Z" fill="#E2E2E2" stroke="#D9D9D9" stroke-width="3" stroke-linecap="round" stroke-linejoin="round"/>
<path d="M620.578 195.614C625.774 180.399 616.394 168.27 626.508 152.459C628.87 148.775 591.674 159.696 581.279 178.932C573.689 192.993 579.206 210.478 590.793 213.99C602.38 217.501 615.383 210.829 620.578 195.614V195.614Z" fill="#BEBEBE" stroke="#D9D9D9" stroke-width="3" stroke-linecap="round" stroke-linejoin="round"/>
<path d="M568.417 389.88C573.668 351.373 597.822 270.683 652.432 255.981" stroke="#D9D9D9" stroke-width="3" stroke-linecap="round"/>
<path d="M580.232 337.371C579.509 319.74 568.52 281.93 530.348 271.733" stroke="#D9D9D9" stroke-width="3" stroke-linecap="round"/>
<path d="M581.544 341.309C583.295 287.486 590.734 179.842 606.487 179.842" stroke="#D9D9D9" stroke-width="3" stroke-linecap="round"/>
<path d="M593.359 210.035C593.359 211.785 594.147 215.286 597.297 215.286" stroke="#DBDBDB" stroke-width="3"/>
<path d="M614.363 154.9C618.301 153.149 625.653 151.224 623.552 157.525" stroke="#DBDBDB" stroke-width="3"/>
<path d="M585.483 211.347C587.671 212.223 592.309 213.185 593.359 210.035" stroke="#DBDBDB" stroke-width="3"/>
<path d="M614.363 271.733C615.238 273.484 618.039 276.197 622.239 273.046" stroke="#DBDBDB" stroke-width="3"/>
<path d="M622.239 273.046C620.927 275.234 618.564 279.61 619.614 279.61" stroke="#DBDBDB" stroke-width="3"/>
<path d="M669.498 245.479C672.124 246.354 676.587 248.629 673.436 250.73" stroke="#DBDBDB" stroke-width="3"/>
<path d="M498.842 266.483C497.967 267.358 496.479 269.371 497.529 270.421" stroke="#DBDBDB" stroke-width="3"/>
<path d="M553.977 283.548C554.414 284.851 555.027 287.59 553.977 288.128" stroke="#DBDBDB" stroke-width="3"/>
<path d="M553.977 283.548C555.29 283.548 557.915 283.286 557.915 282.235" stroke="#DBDBDB" stroke-width="3"/>
<path d="M611.737 156.212C615.676 154.462 623.29 152.537 622.239 158.838" stroke="#DBDBDB" stroke-width="3"/>
</svg>
